<svg width="18" height="20" viewBox="0 0 18 20" fill="none" xmlns="http://www.w3.org/2000/svg">
<path d="M3.25 19.5C2.65417 19.5 2.1441 19.2878 1.71979 18.8635C1.29549 18.4392 1.08333 17.9292 1.08333 17.3333V3.25C0.776389 3.25 0.519097 3.14618 0.311458 2.93854C0.103819 2.7309 0 2.47361 0 2.16667C0 1.85972 0.103819 1.60243 0.311458 1.39479C0.519097 1.18715 0.776389 1.08333 1.08333 1.08333H5.41667C5.41667 0.776389 5.52049 0.519097 5.72813 0.311458C5.93576 0.103819 6.19306 0 6.5 0H10.8333C11.1403 0 11.3976 0.103819 11.6052 0.311458C11.8128 0.519097 11.9167 0.776389 11.9167 1.08333H16.25C16.5569 1.08333 16.8142 1.18715 17.0219 1.39479C17.2295 1.60243 17.3333 1.85972 17.3333 2.16667C17.3333 2.47361 17.2295 2.7309 17.0219 2.93854C16.8142 3.14618 16.5569 3.25 16.25 3.25V17.3333C16.25 17.9292 16.0378 18.4392 15.6135 18.8635C15.1892 19.2878 14.6792 19.5 14.0833 19.5H3.25ZM14.0833 3.25H3.25V17.3333H14.0833V3.25ZM6.5 15.1667C6.80694 15.1667 7.06424 15.0628 7.27188 14.8552C7.47951 14.6476 7.58333 14.3903 7.58333 14.0833V6.5C7.58333 6.19306 7.47951 5.93576 7.27188 5.72813C7.06424 5.52049 6.80694 5.41667 6.5 5.41667C6.19306 5.41667 5.93576 5.52049 5.72813 5.72813C5.52049 5.93576 5.41667 6.19306 5.41667 6.5V14.0833C5.41667 14.3903 5.52049 14.6476 5.72813 14.8552C5.93576 15.0628 6.19306 15.1667 6.5 15.1667ZM10.8333 15.1667C11.1403 15.1667 11.3976 15.0628 11.6052 14.8552C11.8128 14.6476 11.9167 14.3903 11.9167 14.0833V6.5C11.9167 6.19306 11.8128 5.93576 11.6052 5.72813C11.3976 5.52049 11.1403 5.41667 10.8333 5.41667C10.5264 5.41667 10.2691 5.52049 10.0615 5.72813C9.85382 5.93576 9.75 6.19306 9.75 6.5V14.0833C9.75 14.3903 9.85382 14.6476 10.0615 14.8552C10.2691 15.0628 10.5264 15.1667 10.8333 15.1667Z" fill="white"/>
</svg>
