<svg width="69" height="50" viewBox="0 0 69 50" fill="none" xmlns="http://www.w3.org/2000/svg">
<path d="M0 4.70588C0 2.1069 1.79086 0 4 0H65C67.2091 0 69 2.1069 69 4.70588V35.2941C69 37.8931 67.2091 40 65 40H4C1.79086 40 0 37.8931 0 35.2941V4.70588Z" fill="#FFB770"/>
<path d="M56.3836 49.2292L51.7712 40.4657C51.4208 39.7998 51.9036 39 52.6561 39H61.4196C62.1537 39 62.6376 39.7646 62.3233 40.4281L58.1722 49.1915C57.8194 49.9364 56.7675 49.9586 56.3836 49.2292Z" fill="#FFB770"/>
<rect x="6.5" y="9" width="10" height="9" rx="2" fill="#290657" fill-opacity="0.3"/>
<rect x="22.5" y="11" width="40" height="5" rx="2.5" fill="#290657" fill-opacity="0.3"/>
<rect x="22.5" y="25" width="40" height="5" rx="2.5" fill="#290657" fill-opacity="0.3"/>
<rect x="6.5" y="23" width="10" height="9" rx="2" fill="#290657" fill-opacity="0.3"/>
</svg>
